#!OML:ASF E:\Steps\Project 1\Capture day 1\Session 2\Subject.ASF
:FULLY-SPECIFIED
:DEGREES
484
root 1.49578 17.7562 19.0951 -155.082 -3.39612 178.962
lowerback -22.568 -3.40069 -7.09575
upperback 0.537671 -2.90081 0.792992
thorax 13.7602 -1.94179 3.96019
lowerneck 0.0295033 -6.10871 0.148834
upperneck 25.6604 -6.22444 0.811733
head 7.92454 -1.95751 -0.0399447
rclavicle 1.86858e-014 3.97569e-015
rhumerus -45.4234 -16.52 -74.1105
rradius 32.3056
rwrist -2.14177
rhand -9.12551 -55.9285
rfingers 7.12502
rthumb 16.8256 634.78
lclavicle 1.86858e-014 3.97569e-015
lhumerus -29.3963 -1.84718 79.7119
lradius 27.2996
lwrist -0.907729
lhand -22.3498 -12.7149
lfingers 7.12502
lthumb 4.07103 17.226
rfemur -38.5384 4.58278 7.61958
rtibia 21.4658
rfoot -16.2177 -5.14428
rtoes -27.748
lfemur -20.9055 -16.2416 -10.7143
ltibia 16.544
lfoot -18.122 11.0377
ltoes -45.6324
485
root 1.56002 17.7508 19.0618 -155.029 -3.44013 178.779
lowerback -22.3878 -3.41829 -7.15809
upperback 0.598941 -2.91362 0.803992
thorax 13.7361 -1.95061 4.00871
lowerneck -0.197522 -6.10593 0.247959
upperneck 25.5174 -6.27829 0.800322
head 7.91227 -1.9943 -0.070881
rclavicle 5.66536e-015 0
rhumerus -45.4158 -16.6725 -74.0034
rradius 32.4593
rwrist -2.08711
rhand -9.3731 -55.0693
rfingers 7.12502
rthumb 16.5873 635.62
lclavicle 5.66536e-015 0
lhumerus -29.3361 -2.07178 79.9351
lradius 27.465
lwrist -0.598973
lhand -21.9787 -12.495
lfingers 7.12502
lthumb 4.42932 17.4386
rfemur -38.7251 4.44218 7.81432
rtibia 22.0203
rfoot -16.6533 -5.11709
rtoes -28.5344
lfemur -20.9226 -16.3293 -10.6587
ltibia 16.7272
lfoot -17.9547 11.2331
ltoes -46.4274
486
root 1.62444 17.7448 19.0299 -154.916 -3.58655 178.609
lowerback -22.0703 -3.58403 -7.14997
upperback 0.434132 -3.18731 0.914578
thorax 13.4039 -2.07025 4.04813
lowerneck -0.0641319 -6.02213 0.176439
upperneck 25.5729 -6.08089 0.566508
head 7.90072 -1.92054 -0.119062
rclavicle -1.22253e-014 -2.34566e-014
rhumerus -45.5782 -16.0076 -74.0943
rradius 32.6972
rwrist -2.66828
rhand -9.88685 -54.5216
rfingers 7.12502
rthumb 16.0926 636.127
lclavicle -1.22253e-014 -2.34566e-014
lhumerus -29.865 -2.05033 80.1472
lradius 27.7421
lwrist -0.0441591
lhand -22.1617 -12.4843
lfingers 7.12502
lthumb 4.25266 17.453
rfemur -38.8936 4.4071 7.99493
rtibia 22.3694
rfoot -16.8782 -5.55498
rtoes -30.4737
lfemur -21.0511 -16.4977 -10.5372
ltibia 16.9494
lfoot -17.8916 11.3705
ltoes -47.0195
487
root 1.68461 17.7361 18.9977 -154.709 -3.75781 178.475
lowerback -21.9595 -3.66917 -6.97602
upperback 0.338184 -3.3666 0.951202
thorax 13.2432 -2.13758 3.93416
lowerneck -0.00522979 -5.94307 0.257926
upperneck 25.5157 -5.93578 0.373766
head 7.86058 -1.86365 -0.184858
rclavicle -2.19657e-014 4.17448e-015
rhumerus -45.6637 -15.681 -74.1752
rradius 32.9378
rwrist -3.36718
rhand -9.04454 -57.3398
rfingers 7.12502
rthumb 16.9036 633.376
lclavicle -2.19657e-014 4.17448e-015
lhumerus -30.0927 -2.14238 80.3099
lradius 27.8163
lwrist 0.23903
lhand -22.452 -12.5291
lfingers 7.12502
lthumb 3.97225 17.4136
rfemur -39.1282 4.45992 8.13537
rtibia 22.6391
rfoot -17.0858 -6.17376
rtoes -32.5214
lfemur -21.3103 -16.6719 -10.3453
ltibia 17.1658
lfoot -17.8475 11.3827
ltoes -46.4147
488
root 1.7443 17.7286 18.9687 -154.461 -3.87592 178.422
lowerback -21.9909 -3.7474 -6.75227
upperback 0.303346 -3.53841 1.03134
thorax 13.2336 -2.20409 3.83812
lowerneck 0.186399 -5.80712 0.0748057
upperneck 25.1532 -5.80143 0.520312
head 7.71522 -1.82704 -0.0921838
rclavicle 7.45443e-015 2.98177e-015
rhumerus -45.6588 -15.5044 -74.1425
rradius 33.1454
rwrist -3.81724
rhand -8.62238 -58.5323
rfingers 7.12502
rthumb 17.3099 632.219
lclavicle 7.45443e-015 2.98177e-015
lhumerus -30.1227 -2.16184 80.5259
lradius 27.8307
lwrist 0.243126
lhand -22.6946 -12.6204
lfingers 7.12502
lthumb 3.73803 17.3265
rfemur -39.4645 4.67593 8.2842
rtibia 22.9965
rfoot -17.4025 -6.47877
rtoes -32.3618
lfemur -21.6454 -16.7358 -10.0627
ltibia 17.3917
lfoot -17.9872 11.1743
ltoes -44.9196
489
root 1.80593 17.7238 18.9392 -154.34 -4.05598 178.401
lowerback -22.0989 -3.75324 -6.4713
upperback 0.428825 -3.5992 1.03754
thorax 13.4317 -2.21609 3.6574
lowerneck 0.123528 -5.79415 0.0448347
upperneck 24.9781 -5.85047 0.670483
head 7.67363 -1.85722 -0.043162
rclavicle 4.67144e-015 -5.36719e-015
rhumerus -45.5526 -15.8443 -74.0235
rradius 33.26
rwrist -3.62517
rhand -8.2076 -59.1171
rfingers 7.12502
rthumb 17.7091 631.669
lclavicle 4.67144e-015 -5.36719e-015
lhumerus -29.9098 -2.59146 80.7485
lradius 27.8542
lwrist 0.308757
lhand -22.9843 -12.8098
lfingers 7.12502
lthumb 3.45828 17.1419
rfemur -39.6024 4.88449 8.50425
rtibia 23.3093
rfoot -17.6785 -6.51585
rtoes -30.8806
lfemur -21.8472 -16.8679 -9.77121
ltibia 17.5932
lfoot -17.9689 10.9194
ltoes -44.5205
490
root 1.86429 17.7192 18.9043 -154.277 -4.21336 178.311
lowerback -22.2812 -3.72687 -6.26241
upperback 0.636067 -3.58716 1.04086
thorax 13.7648 -2.20136 3.53535
lowerneck -0.103441 -5.80994 0.0879262
upperneck 24.9561 -5.89845 0.640713
head 7.70389 -1.88855 -0.0698298
rclavicle 2.96686e-014 -4.57205e-015
rhumerus -45.3019 -16.033 -74.086
rradius 33.4605
rwrist -4.21827
rhand -8.94162 -58.1507
rfingers 7.12502
rthumb 17.0026 632.573
lclavicle 2.96686e-014 -4.57205e-015
lhumerus -29.5202 -3.01974 80.9971
lradius 27.7942
lwrist 0.337961
lhand -22.6764 -13.1785
lfingers 7.12502
lthumb 3.75557 16.7681
rfemur -39.5791 5.02032 8.64924
rtibia 23.4373
rfoot -17.7622 -6.41102
rtoes -29.8325
lfemur -21.9004 -17.1224 -9.59945
ltibia 17.693
lfoot -17.6272 10.9844
ltoes -45.1858
491
root 1.91966 17.7158 18.8684 -154.183 -4.29849 178.145
lowerback -21.5948 -3.71984 -6.17069
upperback 0.240664 -3.68466 1.1
thorax 12.9184 -2.22588 3.55175
lowerneck 0.230416 -5.76927 0.0470801
upperneck 25.0233 -5.75169 0.511381
head 7.66415 -1.81342 -0.0859015
rclavicle 1.72943e-014 -1.78906e-015
rhumerus -45.9634 -15.6163 -73.8856
rradius 33.677
rwrist -4.8749
rhand -9.16161 -57.2019
rfingers 7.12502
rthumb 16.7909 633.504
lclavicle 1.72943e-014 -1.78906e-015
lhumerus -30.142 -3.22494 81.3142
lradius 27.8226
lwrist 0.222296
lhand -22.1467 -13.4228
lfingers 7.12502
lthumb 4.26708 16.5142
rfemur -39.6024 5.14038 8.68004
rtibia 23.544
rfoot -17.9253 -6.31955
rtoes -29.1223
lfemur -21.9289 -17.3719 -9.53142
ltibia 17.7708
lfoot -17.5814 11.1108
ltoes -45.1564
492
root 1.97597 17.7178 18.8386 -154.134 -4.3279 177.989
lowerback -21.8528 -3.74015 -6.06642
upperback 0.519362 -3.69459 1.08528
thorax 13.3848 -2.22994 3.45639
lowerneck 0.231338 -5.64217 0.108929
upperneck 24.5315 -5.66489 0.542759
head 7.49746 -1.80247 -0.0808078
rclavicle 6.85807e-015 -1.78906e-015
rhumerus -45.4922 -15.8485 -73.8686
rradius 33.5319
rwrist -4.93863
rhand -9.13227 -57.0034
rfingers 7.12502
rthumb 16.8191 633.705
lclavicle 6.85807e-015 -1.78906e-015
lhumerus -29.5701 -3.37268 81.5098
lradius 27.6693
lwrist -0.00481909
lhand -21.8129 -13.4116
lfingers 7.12502
lthumb 4.58943 16.5187
rfemur -39.7495 5.39653 8.68241
rtibia 23.9313
rfoot -18.2631 -6.39296
rtoes -28.1782
lfemur -21.9482 -17.4433 -9.48225
ltibia 17.9176
lfoot -17.7084 11.0687
ltoes -44.7099
